<svg xmlns="http://www.w3.org/2000/svg" width="192" height="192" viewBox="0 0 192 192" fill="none">
<path d="M128.836 149L120.82 137.75L116.742 133.672L96.9141 106.953H110.414L126.023 128.328L130.523 133.109L142.336 149H128.836ZM95.2266 150.125C87.9609 150.125 81.2109 148.812 74.9766 146.188C68.7891 143.562 63.375 139.859 58.7344 135.078C54.1406 130.297 50.5547 124.695 47.9766 118.273C45.4453 111.805 44.1797 104.75 44.1797 97.1094C44.1797 89.5625 45.4453 82.5781 47.9766 76.1562C50.5078 69.7344 54.0469 64.1328 58.5938 59.3516C63.1875 54.5703 68.5781 50.8672 74.7656 48.2422C80.9531 45.5703 87.6797 44.2344 94.9453 44.2344C102.305 44.2344 109.078 45.5703 115.266 48.2422C121.5 50.8672 126.914 54.5703 131.508 59.3516C136.148 64.1328 139.734 69.7578 142.266 76.2266C144.844 82.6484 146.133 89.6562 146.133 97.25C146.133 104.844 144.844 111.852 142.266 118.273C139.734 124.695 136.148 130.297 131.508 135.078C126.914 139.859 121.523 143.562 115.336 146.188C109.195 148.812 102.492 150.125 95.2266 150.125ZM94.9453 138.594C100.523 138.594 105.656 137.562 110.344 135.5C115.078 133.391 119.156 130.461 122.578 126.711C126.047 122.961 128.719 118.578 130.594 113.562C132.516 108.5 133.477 103.016 133.477 97.1094C133.477 91.0625 132.492 85.5312 130.523 80.5156C128.602 75.4531 125.883 71.0703 122.367 67.3672C118.898 63.6641 114.82 60.8047 110.133 58.7891C105.445 56.7734 100.383 55.7656 94.9453 55.7656C89.6016 55.7656 84.6094 56.7734 79.9688 58.7891C75.375 60.8047 71.3438 63.6641 67.875 67.3672C64.4062 71.0703 61.6875 75.4531 59.7188 80.5156C57.7969 85.5312 56.8359 91.0625 56.8359 97.1094C56.8359 103.062 57.7734 108.57 59.6484 113.633C61.5703 118.695 64.2422 123.102 67.6641 126.852C71.0859 130.555 75.1172 133.438 79.7578 135.5C84.3984 137.562 89.4609 138.594 94.9453 138.594Z" />
<style>
        path { fill: #000; }
        @media (prefers-color-scheme: dark) {
            path { fill: #FFF; }
        }
    </style>
</svg>